/* XPM */
static char * close_prelight_test_xpm[] = {
"40 40 78 1",
" 	c None",
".	c #D91717",
"+	c #E04B4B",
"@	c #FDFAFA",
"#	c #FFFFFF",
"$	c #F9E2E2",
"%	c #DA2727",
"&	c #DD3636",
"*	c #FBF1F1",
"=	c #E97E7E",
"-	c #F3BCBC",
";	c #D81717",
">	c #D91E1E",
",	c #F7D3D3",
"'	c #E46161",
")	c #F2B4B4",
"!	c #EA8787",
"~	c #EFA6A6",
"{	c #ED9898",
"]	c #DA2323",
"^	c #F8DEDE",
"/	c #FDFCFC",
"(	c #E25353",
"_	c #E66D6D",
":	c #F5CACA",
"<	c #D81A1A",
"[	c #DF4141",
"}	c #FCF6F6",
"|	c #FAEAEA",
"1	c #DB2D2D",
"2	c #DE3F3F",
"3	c #FCF5F5",
"4	c #FBEBEB",
"5	c #DC2F2F",
"6	c #E77171",
"7	c #F5C8C8",
"8	c #F8DCDC",
"9	c #E25656",
"0	c #F0A7A7",
"a	c #EB8B8B",
"b	c #D91F1F",
"c	c #FBEDED",
"d	c #F5C9C9",
"e	c #D81818",
"f	c #E87B7B",
"g	c #FBF0F0",
"h	c #DD3535",
"i	c #E04848",
"j	c #FDF9F9",
"k	c #F6D0D0",
"l	c #D91C1C",
"m	c #DA2626",
"n	c #E14C4C",
"o	c #EFA0A0",
"p	c #EE9F9F",
"q	c #F3BABA",
"r	c #E97F7F",
"s	c #E56767",
"t	c #EA8585",
"u	c #F2B6B6",
"v	c #FBEFEF",
"w	c #FCF3F3",
"x	c #DE3A3A",
"y	c #E15050",
"z	c #FDFBFB",
"A	c #F9E0E0",
"B	c #DA2424",
"C	c #E35E5E",
"D	c #F7D6D6",
"E	c #DB2B2B",
"F	c #FAE8E8",
"G	c #FCF7F7",
"H	c #DF4444",
"I	c #ED9595",
"J	c #F4C4C4",
"K	c #E77575",
"L	c #D81919",
"M	c #E66F6F",
"........................................",
"........................................",
"........................................",
"........................................",
"........................................",
"........................................",
"........................................",
"........................................",
"........................................",
"........................................",
"........................................",
"........................................",
"........................................",
"........................................",
"............+@#$%......&*#*&............",
".............=##-;....>,##'.............",
"..............)##!....~##{..............",
"..............]^#/(.._##:<..............",
"...............[}#|123#45...............",
"................6##78#/9................",
".................0####a.................",
".................bc##de.................",
".................f###gh.................",
"................ij#g##kl................",
"...............m$#@no##p................",
"..............;q##r.lk##s...............",
"..............t##u...hv#wx..............",
".............yz#AB....C##Db.............",
"............EF#GH......I##0.............",
"...........eJ##K.......L7##M............",
"........................................",
"........................................",
"........................................",
"........................................",
"........................................",
"........................................",
"........................................",
"........................................",
"........................................",
"........................................"};
