/* XPM */
static char * close_active_test_xpm[] = {
"40 40 78 1",
" 	c None",
".	c #2A373E",
"+	c #5A6469",
"@	c #FAFAFA",
"#	c #FFFFFF",
"$	c #E5E6E7",
"%	c #38454B",
"&	c #475258",
"*	c #F2F3F3",
"=	c #899094",
"-	c #C2C5C7",
";	c #303D43",
">	c #D6D9DA",
",	c #6E777B",
"'	c #BABEC1",
")	c #91989B",
"!	c #ADB2B4",
"~	c #A0A6A9",
"{	c #354148",
"]	c #E0E2E3",
"^	c #FCFCFC",
"/	c #616A6F",
"(	c #798185",
"_	c #CED1D3",
":	c #2D3A40",
"<	c #515B61",
"[	c #F7F7F7",
"}	c #EBECED",
"|	c #3E4A50",
"1	c #4F5A5F",
"2	c #F6F6F7",
"3	c #EDEEEE",
"4	c #404C52",
"5	c #7C8488",
"6	c #CCCFD1",
"7	c #DFE1E2",
"8	c #646D72",
"9	c #AFB3B6",
"0	c #959B9F",
"a	c #313D44",
"b	c #EFEFF0",
"c	c #CDD0D2",
"d	c #2B373E",
"e	c #858D91",
"f	c #F1F2F2",
"g	c #455056",
"h	c #576166",
"i	c #F9FAFA",
"j	c #D4D6D8",
"k	c #2E3B42",
"l	c #38444A",
"m	c #5B656A",
"n	c #A8ADB0",
"o	c #A7ACAF",
"p	c #C0C4C6",
"q	c #899194",
"r	c #737C80",
"s	c #8E9599",
"t	c #BCC0C2",
"u	c #F0F1F1",
"v	c #F4F4F4",
"w	c #4A555B",
"x	c #5E686D",
"y	c #FBFBFB",
"z	c #E2E4E5",
"A	c #364249",
"B	c #6B7479",
"C	c #D9DBDC",
"D	c #3D484F",
"E	c #EAEBEB",
"F	c #F8F8F8",
"G	c #535E63",
"H	c #9EA4A7",
"I	c #2B383F",
"J	c #C8CCCD",
"K	c #80888C",
"L	c #2C3940",
"M	c #7B8387",
"........................................",
"........................................",
"........................................",
"........................................",
"........................................",
"........................................",
"........................................",
"........................................",
"........................................",
"........................................",
"........................................",
"........................................",
"........................................",
"........................................",
"............+@#$%......&*#*&............",
".............=##-.....;>##,.............",
"..............'##)....!##~..............",
"..............{]#^/..(##_:..............",
"...............<[#}|12#34...............",
"................5##67#^8................",
".................9####0.................",
".................ab##cd.................",
".................e###fg.................",
"................hi#f##jk................",
"...............l$#@mn##o................",
"...............p##q.kj##r...............",
"..............s##t...gu#vw..............",
".............xy#zA....B##Ca.............",
"............DE#FG......H##9.............",
"...........IJ##K.......L6##M............",
"........................................",
"........................................",
"........................................",
"........................................",
"........................................",
"........................................",
"........................................",
"........................................",
"........................................",
"........................................"};
