/* XPM */
static char * close_inactive_xpm[] = {
"40 40 77 1",
" 	c None",
".	c #37474F",
"+	c #647076",
"@	c #FAFBFB",
"#	c #FFFFFF",
"$	c #E6E8E9",
"%	c #45535B",
"&	c #526067",
"*	c #F3F3F4",
"=	c #90999D",
"-	c #C5CACC",
";	c #3D4C54",
">	c #D9DCDD",
",	c #778187",
"'	c #BEC3C6",
")	c #98A0A4",
"!	c #B2B8BB",
"~	c #A6ADB1",
"{	c #415058",
"]	c #E2E4E5",
"^	c #FCFCFC",
"/	c #6A767C",
"(	c #818B90",
"_	c #D1D5D6",
":	c #3A4951",
"<	c #5B686F",
"[	c #F7F8F8",
"}	c #ECEEEE",
"|	c #4A5860",
"1	c #5A676D",
"2	c #F6F7F7",
"3	c #EEEFF0",
"4	c #4C5A61",
"5	c #848E93",
"6	c #CFD3D5",
"7	c #E1E3E4",
"8	c #6D797F",
"9	c #B3B9BC",
"0	c #9BA3A7",
"a	c #3D4D55",
"b	c #EFF1F1",
"c	c #D0D4D6",
"d	c #8D969A",
"e	c #F2F3F3",
"f	c #505E65",
"g	c #616D74",
"h	c #FAFAFA",
"i	c #D6DADB",
"j	c #3B4B52",
"k	c #44535A",
"l	c #657177",
"m	c #ADB4B7",
"n	c #ACB3B6",
"o	c #C4C8CB",
"p	c #91999E",
"q	c #7C868B",
"r	c #959EA2",
"s	c #C0C5C7",
"t	c #F1F2F3",
"u	c #F4F5F5",
"v	c #556269",
"w	c #68747A",
"x	c #FBFBFB",
"y	c #E4E6E7",
"z	c #425159",
"A	c #747F85",
"B	c #DBDEDF",
"C	c #48575E",
"D	c #EBECED",
"E	c #F8F8F9",
"F	c #5E6B71",
"G	c #A4ABAF",
"H	c #384850",
"I	c #CCD0D2",
"J	c #889196",
"K	c #394950",
"L	c #838C91",
"........................................",
"........................................",
"........................................",
"........................................",
"........................................",
"........................................",
"........................................",
"........................................",
"........................................",
"........................................",
"........................................",
"........................................",
"........................................",
"........................................",
"............+@#$%......&*#*&............",
".............=##-.....;>##,.............",
"..............'##)....!##~..............",
"..............{]#^/..(##_:..............",
"...............<[#}|12#34...............",
"................5##67#^8................",
".................9####0.................",
".................ab##c..................",
".................d###ef.................",
"................gh#e##ij................",
"...............k$#@lm##n................",
"...............o##p.ji##q...............",
"..............r##s...ft#uv..............",
".............wx#yz....A##Ba.............",
"............CD#EF......G##9.............",
"...........HI##J.......K6##L............",
"........................................",
"........................................",
"........................................",
"........................................",
"........................................",
"........................................",
"........................................",
"........................................",
"........................................",
"........................................"};
