/* XPM */
static char * maximize_prelight_xpm[] = {
"40 40 3 1",
" 	c None",
".	c #455A64",
"+	c #FFFFFF",
"........................................",
"........................................",
"........................................",
"........................................",
"........................................",
"........................................",
"........................................",
"........................................",
"........................................",
"........................................",
"........................................",
"........................................",
"........................................",
"........................................",
"............++++++++++++++++............",
"............++++++++++++++++............",
"............++............++............",
"............++............++............",
"............++............++............",
"............++............++............",
"............++............++............",
"............++............++............",
"............++............++............",
"............++............++............",
"............++............++............",
"............++............++............",
"............++............++............",
"............++............++............",
"............++++++++++++++++............",
"............++++++++++++++++............",
"........................................",
"........................................",
"........................................",
"........................................",
"........................................",
"........................................",
"........................................",
"........................................",
"........................................",
"........................................"};
