/* XPM */
static char * maximize_inactive_xpm[] = {
"40 40 3 1",
" 	c None",
".	c #37474F",
"+	c #FFFFFF",
"........................................",
"........................................",
"........................................",
"........................................",
"........................................",
"........................................",
"........................................",
"........................................",
"........................................",
"........................................",
"........................................",
"........................................",
"........................................",
"........................................",
"............++++++++++++++++............",
"............++++++++++++++++............",
"............++............++............",
"............++............++............",
"............++............++............",
"............++............++............",
"............++............++............",
"............++............++............",
"............++............++............",
"............++............++............",
"............++............++............",
"............++............++............",
"............++............++............",
"............++............++............",
"............++++++++++++++++............",
"............++++++++++++++++............",
"........................................",
"........................................",
"........................................",
"........................................",
"........................................",
"........................................",
"........................................",
"........................................",
"........................................",
"........................................"};
