/* XPM */
static char * maximize_active_xpm[] = {
"40 40 3 1",
" 	c None",
".	c #2A373E",
"+	c #FFFFFF",
"........................................",
"........................................",
"........................................",
"........................................",
"........................................",
"........................................",
"........................................",
"........................................",
"........................................",
"........................................",
"........................................",
"........................................",
"........................................",
"........................................",
"............++++++++++++++++............",
"............++++++++++++++++............",
"............++............++............",
"............++............++............",
"............++............++............",
"............++............++............",
"............++............++............",
"............++............++............",
"............++............++............",
"............++............++............",
"............++............++............",
"............++............++............",
"............++............++............",
"............++............++............",
"............++++++++++++++++............",
"............++++++++++++++++............",
"........................................",
"........................................",
"........................................",
"........................................",
"........................................",
"........................................",
"........................................",
"........................................",
"........................................",
"........................................"};
